<svg width="37" height="37" viewBox="0 0 37 37" fill="none" xmlns="http://www.w3.org/2000/svg">
<path d="M6.55118 25.98C9.23089 26.1308 11.5742 25.5044 13.8595 23.8455C11.551 23.4511 9.95012 22.3954 9.08009 20.2145C9.75291 20.1217 10.3445 20.2957 11.0406 20.0173C8.76688 19.0197 7.29361 17.5232 7.23561 14.9363C7.95484 14.9943 8.50007 15.4699 9.3585 15.4003C7.27042 13.3587 6.63238 11.1314 7.94323 8.42846C10.1241 10.9342 12.6762 12.6394 15.7968 13.4399C15.9708 13.4863 16.1332 13.5327 16.3072 13.5675C17.1076 13.7531 18.0588 14.1475 18.5461 14.0895C19.3813 13.9851 18.5461 13.0222 18.7549 11.7694C19.4161 7.87163 23.7083 6.09676 26.8868 8.38206C27.8148 9.05488 28.5457 9.04328 29.4621 8.63727C29.9377 8.42846 30.425 8.21965 30.9934 7.97604C30.8658 9.08968 30.0073 9.70451 29.3229 10.5281C30.1001 10.7021 30.7266 10.4817 31.4458 10.2497C31.2022 11.0502 30.599 11.5026 30.0537 11.9434C29.4853 12.3958 29.2649 12.8714 29.2417 13.6139C28.8937 24.8547 16.1216 33.5435 7.38642 26.6296C6.53959 25.9568 7.36321 26.6296 6.55118 25.98Z" fill="#29005F"/>
</svg>
