<svg width="37" height="37" viewBox="0 0 37 37" fill="none" xmlns="http://www.w3.org/2000/svg">
<path d="M18.0027 6.23022C14.7433 6.23022 14.3343 6.24448 13.0542 6.30273C11.7766 6.36124 10.9045 6.56351 10.1414 6.86028C9.35209 7.16681 8.68252 7.57685 8.01546 8.24417C7.3479 8.91123 6.93786 9.58079 6.63033 10.3699C6.3328 11.1332 6.13028 12.0055 6.07278 13.2826C6.01552 14.5628 6.00052 14.9721 6.00052 18.2314C6.00052 21.4907 6.01502 21.8985 6.07303 23.1786C6.13178 24.4562 6.33405 25.3283 6.63058 26.0914C6.93736 26.8807 7.3474 27.5502 8.01471 28.2173C8.68152 28.8849 9.35109 29.2959 10.1399 29.6024C10.9035 29.8992 11.7758 30.1015 13.0532 30.16C14.3333 30.2183 14.7421 30.2325 18.0012 30.2325C21.2607 30.2325 21.6685 30.2183 22.9486 30.16C24.2263 30.1015 25.0993 29.8992 25.8629 29.6024C26.652 29.2959 27.3205 28.8849 27.9874 28.2173C28.6549 27.5502 29.065 26.8807 29.3725 26.0916C29.6675 25.3283 29.87 24.456 29.93 23.1788C29.9875 21.8987 30.0025 21.4907 30.0025 18.2314C30.0025 14.9721 29.9875 14.563 29.93 13.2829C29.87 12.0053 29.6675 11.1332 29.3725 10.3701C29.065 9.58079 28.6549 8.91123 27.9874 8.24417C27.3198 7.5766 26.6522 7.16656 25.8622 6.86028C25.0971 6.56351 24.2245 6.36124 22.9469 6.30273C21.6668 6.24448 21.2592 6.23022 17.9989 6.23022H18.0027ZM16.9261 8.39293C17.2456 8.39243 17.6021 8.39293 18.0027 8.39293C21.207 8.39293 21.5867 8.40443 22.8521 8.46194C24.0222 8.51544 24.6573 8.71096 25.0803 8.87523C25.6404 9.09275 26.0397 9.35277 26.4595 9.77281C26.8795 10.1929 27.1395 10.5929 27.3575 11.1529C27.5218 11.5755 27.7176 12.2105 27.7708 13.3807C27.8283 14.6458 27.8408 15.0258 27.8408 18.2286C27.8408 21.4314 27.8283 21.8115 27.7708 23.0766C27.7173 24.2467 27.5218 24.8817 27.3575 25.3043C27.14 25.8643 26.8795 26.2631 26.4595 26.6829C26.0394 27.103 25.6406 27.363 25.0803 27.5805C24.6578 27.7455 24.0222 27.9405 22.8521 27.994C21.587 28.0515 21.207 28.064 18.0027 28.064C14.7981 28.064 14.4183 28.0515 13.1532 27.994C11.9831 27.94 11.348 27.7445 10.9247 27.5802C10.3647 27.3627 9.96465 27.1027 9.54461 26.6827C9.12457 26.2626 8.86454 25.8636 8.64652 25.3033C8.48225 24.8807 8.28649 24.2457 8.23323 23.0756C8.17573 21.8105 8.16422 21.4304 8.16422 18.2256C8.16422 15.0208 8.17573 14.6428 8.23323 13.3777C8.28674 12.2075 8.48225 11.5725 8.64652 11.1494C8.86404 10.5894 9.12457 10.1893 9.54461 9.76931C9.96465 9.34927 10.3647 9.08925 10.9247 8.87123C11.3478 8.70621 11.9831 8.51119 13.1532 8.45744C14.2603 8.40743 14.6893 8.39243 16.9261 8.38993V8.39293ZM24.4088 10.3856C23.6137 10.3856 22.9686 11.0299 22.9686 11.8253C22.9686 12.6203 23.6137 13.2654 24.4088 13.2654C25.2038 13.2654 25.8489 12.6203 25.8489 11.8253C25.8489 11.0302 25.2038 10.3851 24.4088 10.3851V10.3856ZM18.0027 12.0683C14.5991 12.0683 11.8396 14.8278 11.8396 18.2314C11.8396 21.6349 14.5991 24.3932 18.0027 24.3932C21.4062 24.3932 24.1647 21.6349 24.1647 18.2314C24.1647 14.8278 21.406 12.0683 18.0024 12.0683H18.0027ZM18.0027 14.231C20.2119 14.231 22.003 16.0219 22.003 18.2314C22.003 20.4406 20.2119 22.2317 18.0027 22.2317C15.7932 22.2317 14.0023 20.4406 14.0023 18.2314C14.0023 16.0219 15.7932 14.231 18.0027 14.231V14.231Z" fill="#29005F"/>
</svg>
