<svg width="240" height="106" viewBox="0 0 240 106" fill="none" xmlns="http://www.w3.org/2000/svg">
<path d="M16.5469 43.7711H20.1284V67.877H16.5469V56.7539H5.64766V67.877H2.06622V43.7711H5.64766V53.1724H16.5469V43.7711Z" fill="white"/>
<path d="M31.6026 68.3247C30.0185 68.3247 28.5721 67.9172 27.2635 67.1022C25.9664 66.2871 24.9276 65.1966 24.147 63.8306C23.3779 62.4532 22.9934 60.9322 22.9934 59.2678C22.9934 58.0051 23.2172 56.8285 23.6649 55.738C24.1126 54.636 24.7267 53.6718 25.5073 52.8453C26.2993 52.0073 27.2176 51.353 28.2622 50.8824C29.3068 50.4117 30.4203 50.1764 31.6026 50.1764C32.9227 50.1764 34.1337 50.4519 35.2357 51.0029C36.3377 51.5424 37.2789 52.2943 38.0595 53.2585C38.8401 54.2113 39.414 55.3133 39.7814 56.5645C40.1487 57.8042 40.2577 59.1243 40.1085 60.5247H26.8331C26.9823 61.3168 27.2693 62.0342 27.694 62.677C28.1302 63.3084 28.6812 63.8077 29.347 64.175C30.0242 64.5423 30.7761 64.7317 31.6026 64.7432C32.475 64.7432 33.267 64.5251 33.9787 64.0889C34.7019 63.6527 35.2931 63.0501 35.7522 62.281L39.3853 63.1247C38.6966 64.6514 37.6577 65.9026 36.2688 66.8783C34.8798 67.8425 33.3244 68.3247 31.6026 68.3247ZM26.7126 57.787H36.4926C36.3778 56.9605 36.0851 56.2144 35.6145 55.5486C35.1553 54.8713 34.5756 54.3375 33.8754 53.9473C33.1867 53.5455 32.4291 53.3446 31.6026 53.3446C30.7876 53.3446 30.03 53.5398 29.3298 53.93C28.641 54.3203 28.0671 54.8541 27.6079 55.5314C27.1602 56.1971 26.8618 56.949 26.7126 57.787Z" fill="white"/>
<path d="M58.4567 57.081V67.877H54.8752V57.9592C54.8752 57.1901 54.6858 56.4898 54.307 55.8585C53.9397 55.2272 53.4403 54.7278 52.809 54.3605C52.1891 53.9817 51.4889 53.7923 50.7083 53.7923C49.9507 53.7923 49.2563 53.9817 48.6249 54.3605C47.9936 54.7278 47.4885 55.2272 47.1097 55.8585C46.7309 56.4898 46.5415 57.1901 46.5415 57.9592V67.877H42.96V50.6585H46.5415V52.4837C47.1384 51.772 47.873 51.2095 48.7454 50.7963C49.6178 50.383 50.5591 50.1764 51.5693 50.1764C52.8434 50.1764 54.0028 50.4863 55.0474 51.1062C56.092 51.7261 56.9185 52.5583 57.5269 53.6029C58.1467 54.6475 58.4567 55.8068 58.4567 57.081Z" fill="white"/>
<path d="M67.0592 68.2041C66.1523 68.1467 65.2684 67.9631 64.4075 67.6531C63.5466 67.3432 62.789 66.9242 62.1347 66.3962C61.4919 65.8567 61.0097 65.2253 60.6883 64.5022L63.736 63.1936C63.8852 63.5035 64.1435 63.8077 64.5108 64.1061C64.8896 64.4046 65.3316 64.6514 65.8366 64.8465C66.3417 65.0302 66.8698 65.122 67.4207 65.122C67.9603 65.122 68.4596 65.0474 68.9187 64.8982C69.3894 64.7375 69.7739 64.4964 70.0724 64.175C70.3708 63.8536 70.5201 63.4691 70.5201 63.0214C70.5201 62.5163 70.3479 62.126 70.0035 61.8505C69.6706 61.5636 69.2516 61.3455 68.7466 61.1962C68.2415 61.047 67.7364 60.9035 67.2313 60.7658C66.1064 60.5132 65.0733 60.1689 64.132 59.7327C63.2022 59.285 62.4618 58.7168 61.9108 58.028C61.3598 57.3278 61.0843 56.4726 61.0843 55.4625C61.0843 54.3605 61.3828 53.4077 61.9797 52.6042C62.5766 51.7892 63.3572 51.1636 64.3214 50.7274C65.2971 50.2912 66.336 50.0731 67.438 50.0731C68.8154 50.0731 70.0781 50.3658 71.226 50.9512C72.3739 51.5367 73.2521 52.3402 73.8604 53.3618L71.0194 55.0492C70.8472 54.7049 70.5889 54.3949 70.2446 54.1194C69.9002 53.8439 69.5099 53.6258 69.0737 53.4651C68.6375 53.293 68.1841 53.1954 67.7135 53.1724C67.128 53.1495 66.5828 53.2183 66.0777 53.379C65.5841 53.5283 65.1881 53.7693 64.8896 54.1022C64.5912 54.4351 64.4419 54.8598 64.4419 55.3764C64.4419 55.8815 64.6199 56.2603 64.9757 56.5128C65.3316 56.7539 65.7792 56.949 66.3188 57.0982C66.8697 57.2475 67.4322 57.4139 68.0062 57.5976C69.0278 57.919 69.9863 58.315 70.8816 58.7856C71.777 59.2448 72.5002 59.813 73.0512 60.4903C73.6022 61.1675 73.8662 61.994 73.8432 62.9697C73.8432 64.0487 73.5161 64.9958 72.8618 65.8108C72.2189 66.6258 71.381 67.2456 70.3479 67.6704C69.3148 68.0951 68.2185 68.273 67.0592 68.2041Z" fill="white"/>
<path d="M76.1029 61.4201V50.6585H79.6843V60.5419C79.6843 61.311 79.8737 62.0112 80.2525 62.6426C80.6313 63.2739 81.1364 63.779 81.7677 64.1578C82.3991 64.5251 83.0936 64.7088 83.8512 64.7088C84.6203 64.7088 85.3147 64.5251 85.9346 64.1578C86.5659 63.779 87.0653 63.2739 87.4326 62.6426C87.8114 62.0112 88.0008 61.311 88.0008 60.5419V50.6585H91.5823L91.5995 67.877H88.018L88.0008 66.0174C87.4154 66.7291 86.6865 67.2916 85.8141 67.7048C84.9417 68.118 84.0061 68.3247 83.0075 68.3247C81.7333 68.3247 80.5739 68.0147 79.5293 67.3949C78.4848 66.775 77.6525 65.9428 77.0327 64.8982C76.4128 63.8536 76.1029 62.6942 76.1029 61.4201Z" fill="white"/>
<path d="M95.0526 50.6585H98.634V67.877H95.0526V50.6585ZM96.8777 48.1619C96.3268 48.1619 95.8676 47.9839 95.5003 47.6281C95.1329 47.2722 94.9493 46.8246 94.9493 46.285C94.9493 45.757 95.1329 45.3151 95.5003 44.9592C95.8676 44.5919 96.321 44.4082 96.8605 44.4082C97.3886 44.4082 97.8362 44.5919 98.2036 44.9592C98.5709 45.3151 98.7546 45.757 98.7546 46.285C98.7546 46.8246 98.5709 47.2722 98.2036 47.6281C97.8477 47.9839 97.4058 48.1619 96.8777 48.1619Z" fill="white"/>
<g clip-path="url(#clip0_4_9)">
<path fill-rule="evenodd" clip-rule="evenodd" d="M143.5 99.8188L108.569 6.60461L108.569 6.6043C108.442 6.2749 108.073 6.11009 107.743 6.23664L106.073 6.87698C105.743 7.00354 105.579 7.37298 105.705 7.70238L142.114 100.487C142.139 100.551 142.163 100.615 142.186 100.677C142.45 101.38 142.653 101.923 143.38 101.644C144.106 101.365 143.855 100.724 143.574 100.008C143.549 99.9453 143.525 99.8823 143.5 99.8188ZM138.203 102.065L93.3152 13.0727L93.3142 13.0722C93.1578 12.7552 93.2874 12.3724 93.6044 12.216L95.2072 11.4224C95.5242 11.2661 95.9065 11.3954 96.0634 11.7114L110.436 41.3284L139.521 101.27C139.551 101.33 139.582 101.391 139.612 101.45C139.959 102.138 140.269 102.754 139.571 103.099C139.291 103.238 139.083 103.236 138.913 103.143C138.658 103.002 138.487 102.65 138.291 102.244C138.262 102.185 138.233 102.125 138.203 102.065Z" fill="white"/>
</g>
<path d="M138.139 56.899L141.314 60.1525C141.76 59.4703 142.39 58.5258 142.993 57.7124C144.043 56.2693 145.906 53.698 146.955 52.3599C147.69 51.4154 148.241 51.3891 149.08 52.2287C150.051 53.1733 152.36 55.7183 153.908 57.5287C155.456 59.3654 157.66 62.0678 159.418 64.2456L162.304 61.1233C160.284 58.9718 157.608 56.0857 155.85 54.1966C154.275 52.5173 152.255 50.4183 150.497 48.7391C148.451 46.8238 146.903 47.1124 145.355 48.9753C143.544 51.1267 141.498 53.698 140.317 54.8787C139.504 55.6921 138.926 56.2431 138.139 56.899Z" fill="white"/>
<path d="M168.549 44.8559L166.056 47.506C167.971 48.8178 171.277 51.6777 172.642 53.147L175.318 50.4183C173.77 48.8178 170.359 46.0891 168.549 44.8559ZM165.243 62.3302L167.473 65.7936C171.146 65.1639 174.531 63.7208 177.207 62.1203C181.431 59.5753 184.921 55.9545 186.889 52.3862L184.869 48.7129C183.189 52.255 179.778 56.2431 175.292 58.9193C172.747 60.4149 169.362 61.753 165.243 62.3302Z" fill="white"/>
<path d="M208.757 47.0337L206.632 45.4332C206.081 45.6168 205.058 45.748 203.903 45.748C202.749 45.748 196.032 45.748 194.641 45.748C193.88 45.748 192.254 45.6693 191.545 45.5644V49.3163C192.122 49.2639 193.565 49.1327 194.641 49.1327C195.769 49.1327 202.46 49.1327 203.562 49.1327C202.959 50.9956 201.358 53.5931 199.626 55.5609C197.16 58.2896 193.119 61.4906 188.869 63.0649L191.598 65.8985C195.664 63.9832 199.626 60.7297 202.565 57.3451C204.821 54.7213 206.763 51.153 207.839 48.6604C208.075 48.1094 208.547 47.3223 208.757 47.0337ZM202.906 55.1673L200.44 57.6074C203.247 60.1525 206.107 63.2748 208.049 65.9773L211.04 63.3797C209.334 61.2807 205.609 57.3713 202.906 55.1673Z" fill="white"/>
<path d="M213.716 54.6164L215.343 57.9223C219.488 56.6891 223.739 54.7213 226.704 52.9634C229.8 51.1005 233.001 48.6342 235.388 46.2203L232.555 43.5441C230.849 45.6168 227.858 48.2406 225.182 49.8936C222.243 51.704 218.413 53.4094 213.716 54.6164ZM224.631 51.599V62.5401C224.631 63.6946 224.526 65.3475 224.421 65.9773H228.593C228.409 65.3213 228.357 63.6946 228.357 62.5401V50.7069L224.631 51.599Z" fill="white"/>
<defs>
<clipPath id="clip0_4_9">
<rect width="87.1147" height="69.9953" fill="white" transform="translate(99.4473 1.39633) rotate(28.9048)"/>
</clipPath>
</defs>
</svg>
